<svg xmlns="http://www.w3.org/2000/svg"  viewBox="0 0 50 50" width="50px" height="50px"><path d="M 18.460938 3 C 18.101563 3.011719 17.769531 3.230469 17.609375 3.550781 L 16.730469 5.3125 L 15.710938 4.289063 C 15.441406 4.027344 15.050781 3.929688 14.6875 4.050781 C 14.328125 4.171875 14.070313 4.480469 14.011719 4.851563 L 12.0625 17.53125 C 11.660156 17.960938 11 18.859375 11 20 L 11 20.417969 C 9.761719 21.757813 9 23.539063 9 25.5 C 9 27.664063 9.9375 29.59375 11.410156 30.953125 C 11.378906 31.070313 11.335938 31.1875 11.3125 31.300781 C 11.105469 31.957031 10.855469 32.496094 10.628906 32.980469 C 10.296875 33.695313 10.011719 34.3125 10.011719 35 C 10.011719 37.339844 13.695313 38.988281 17.015625 39.660156 C 17.082031 39.660156 19.195313 40 20.011719 40 C 23.078125 40 25.019531 39.742188 26.171875 39.503906 C 25.941406 39.121094 25.972656 38.625 26.304688 38.292969 C 26.695313 37.902344 27.328125 37.902344 27.71875 38.292969 L 29.71875 40.292969 C 30.109375 40.683594 30.109375 41.316406 29.71875 41.707031 C 29.523438 41.902344 29.269531 42 29.011719 42 C 28.753906 42 28.5 41.902344 28.304688 41.707031 L 27.761719 41.160156 C 26.707031 41.496094 24.402344 42 20.011719 42 C 19.445313 42 18.816406 41.949219 18.167969 41.859375 C 18.503906 42.902344 19.375 44 20.96875 43.964844 C 20.984375 43.980469 21 44.027344 21.011719 44.066406 L 21 45.996094 C 21 46.261719 21.105469 46.515625 21.292969 46.703125 C 21.480469 46.894531 21.734375 47 22 47 L 28 47 C 32.328125 47 33.515625 45.953125 33.777344 45.628906 C 33.921875 45.453125 34 45.230469 34 45 C 34 41.058594 34.777344 38.792969 34.890625 38.488281 C 35.5 38.464844 36.183594 38.359375 36.8125 37.902344 C 37.574219 37.339844 38 36.308594 38 35 C 38 34.214844 37.699219 33.511719 37.25 33.046875 C 36.90625 32.683594 36.507813 32.480469 36.117188 32.332031 C 36.398438 30.511719 37.648438 23.335938 41.949219 10.3125 C 42.070313 9.941406 41.96875 9.539063 41.6875 9.269531 C 41.398438 9 40.992188 8.929688 40.628906 9.070313 L 39.238281 9.617188 L 38.980469 8.300781 C 38.910156 7.972656 38.679688 7.691406 38.359375 7.570313 C 38.039063 7.441406 37.679688 7.488281 37.402344 7.699219 L 36.71875 8.210938 L 36.488281 6.839844 C 36.429688 6.511719 36.21875 6.230469 35.921875 6.089844 C 35.621094 5.949219 35.269531 5.96875 34.988281 6.140625 L 33.75 6.890625 L 33.488281 5.339844 C 33.429688 4.988281 33.1875 4.691406 32.859375 4.570313 C 32.53125 4.441406 32.152344 4.5 31.878906 4.71875 L 30.5 5.820313 L 29.949219 4.179688 C 29.839844 3.851563 29.570313 3.609375 29.230469 3.53125 C 28.890625 3.449219 28.539063 3.550781 28.289063 3.789063 L 27.199219 4.890625 L 26.359375 3.492188 C 26.1875 3.199219 25.890625 3.019531 25.570313 3 C 25.242188 2.988281 24.921875 3.121094 24.71875 3.382813 L 23.621094 4.75 L 22.859375 3.492188 C 22.6875 3.199219 22.390625 3.019531 22.070313 3 C 21.742188 2.988281 21.421875 3.121094 21.21875 3.382813 L 20.121094 4.75 L 19.359375 3.492188 C 19.167969 3.171875 18.851563 2.988281 18.460938 3 Z M 16.5 20 C 17.925781 20 19.21875 20.554688 20.195313 21.453125 C 19.441406 22.621094 19 24.007813 19 25.5 C 19 26.761719 19.316406 27.949219 19.867188 28.992188 C 19.867188 28.996094 19.867188 28.996094 19.863281 29 L 16.558594 29 C 15.699219 29 15 29.671875 15 30.5 C 15 31.328125 15.699219 32 16.558594 32 L 18.433594 32 C 18.984375 32 19.433594 32.449219 19.433594 33 C 19.433594 33.550781 18.984375 34 18.433594 34 L 16.558594 34 C 14.59375 34 13 32.429688 13 30.5 C 13 30.253906 13.027344 30.011719 13.078125 29.78125 C 12.9375 29.671875 12.808594 29.550781 12.683594 29.425781 C 12.632813 29.378906 12.589844 29.335938 12.542969 29.285156 C 12.429688 29.167969 12.320313 29.046875 12.21875 28.917969 C 12.195313 28.890625 12.175781 28.867188 12.15625 28.839844 C 11.894531 28.503906 11.671875 28.136719 11.496094 27.75 C 11.492188 27.75 11.492188 27.75 11.488281 27.75 C 11.175781 27.0625 11 26.304688 11 25.5 C 11 22.46875 13.46875 20 16.5 20 Z M 26.5 20 C 29.53125 20 32 22.46875 32 25.5 C 32 28.53125 29.53125 31 26.5 31 C 23.46875 31 21 28.53125 21 25.5 C 21 22.46875 23.46875 20 26.5 20 Z M 16 25 C 15.449219 25 15 25.449219 15 26 C 15 26.550781 15.449219 27 16 27 C 16.550781 27 17 26.550781 17 26 C 17 25.449219 16.550781 25 16 25 Z M 26 26 C 25.449219 26 25 26.449219 25 27 C 25 27.550781 25.449219 28 26 28 C 26.550781 28 27 27.550781 27 27 C 27 26.449219 26.550781 26 26 26 Z M 34.609375 34.015625 C 34.800781 34.03125 35.011719 34.058594 35.21875 34.117188 C 35.484375 34.195313 35.695313 34.3125 35.8125 34.433594 C 35.925781 34.550781 36 34.660156 36 35 C 36 35.941406 35.800781 36.160156 35.625 36.285156 C 35.453125 36.414063 35.058594 36.5 34.5 36.5 C 34.351563 36.5 33.988281 36.347656 33.753906 36.246094 C 32.84375 35.84375 32.417969 34.117188 34.609375 34.015625 Z"/></svg>