<svg xmlns="http://www.w3.org/2000/svg"  viewBox="0 0 50 50" width="50px" height="50px"><path d="M 14 3 C 12.011 3 9.7603906 4.3862188 8.4003906 6.4492188 C 6.2983906 9.6412187 5.9126719 14.653312 6.0136719 18.695312 C 5.6036719 18.544313 5.1716563 18.449219 4.7226562 18.449219 C 2.6556562 18.449219 0.97265625 20.132219 0.97265625 22.199219 C 0.97265625 23.408219 1.5599063 24.525703 2.5039062 25.220703 C 2.4089062 25.552703 2.359375 25.898047 2.359375 26.248047 C 2.359375 27.554047 3.0347812 28.704953 4.0507812 29.376953 C 2.9547812 32.015953 2.6644375 34.833266 3.3984375 37.572266 C 4.4524375 41.507266 7.40675 44.664891 11.71875 46.462891 C 12.61475 46.836891 13.558531 47.117516 14.519531 47.353516 C 14.725531 47.422516 14.922672 47.497594 15.138672 47.558594 C 16.583672 47.963594 18.173891 48.164063 19.837891 48.164062 C 21.773891 48.164062 23.810844 47.893609 25.839844 47.349609 C 29.694844 46.316609 32.901219 44.494984 35.074219 42.333984 C 39.670219 38.347984 41.983938 32.826422 40.585938 27.607422 C 39.766937 24.548422 37.767141 21.996734 34.994141 20.177734 C 34.217141 19.701734 33.420422 19.264922 32.607422 18.919922 C 32.099422 18.703922 31.861125 18.116422 32.078125 17.607422 C 32.294125 17.099422 32.883625 16.862078 33.390625 17.080078 C 34.961625 17.748078 36.498625 18.672188 37.890625 19.742188 C 39.912625 19.598188 41.967797 19.364562 43.716797 18.976562 C 47.886797 18.049562 50 15.702 50 12 C 50 9.11 47.653 6 42.5 6 C 35.033 6 29.628297 7.7778594 26.779297 9.0058594 C 27.913297 10.827859 29.295187 14.174359 28.242188 16.943359 C 27.775188 18.170359 26.612844 19.763484 23.714844 20.396484 C 23.148844 20.520484 22.603984 20.578125 22.083984 20.578125 C 16.703984 20.578125 13.815547 14.525141 13.685547 14.244141 C 13.452547 13.744141 13.668969 13.150016 14.167969 12.916016 C 14.667969 12.684016 15.263094 12.897484 15.496094 13.396484 C 15.526094 13.458484 18.436156 19.500359 23.285156 18.443359 C 24.933156 18.083359 25.944047 17.360422 26.373047 16.232422 C 27.102047 14.318422 26.005781 11.437125 24.925781 9.828125 C 23.501781 7.933125 19.286 3 14 3 z M 9.2207031 19.207031 C 10.114703 19.207031 10.839844 19.935125 10.839844 20.828125 C 10.839844 21.216125 10.700312 21.592719 10.445312 21.886719 C 10.216313 22.151719 10.143953 22.514656 10.251953 22.847656 C 10.357953 23.179656 10.630703 23.432672 10.970703 23.513672 C 11.702703 23.688672 12.214844 24.334891 12.214844 25.087891 C 12.214844 25.981891 11.48675 26.707031 10.59375 26.707031 C 10.16975 26.707031 9.7688906 26.545047 9.4628906 26.248047 C 9.2078906 26.001047 8.8419531 25.905953 8.5019531 26.001953 C 8.1599531 26.095953 7.8927812 26.363078 7.8007812 26.705078 C 7.5967813 27.467078 6.9013281 28 6.1113281 28 C 5.1463281 28 4.3613281 27.215 4.3613281 26.25 C 4.3613281 25.919 4.4548594 25.596359 4.6308594 25.318359 C 4.7918594 25.062359 4.8274687 24.748891 4.7304688 24.462891 C 4.6334687 24.176891 4.4109531 23.948703 4.1269531 23.845703 C 3.4379531 23.594703 2.9746094 22.933219 2.9746094 22.199219 C 2.9746094 21.234219 3.7596094 20.449219 4.7246094 20.449219 C 5.1896094 20.449219 5.6299375 20.631937 5.9609375 20.960938 C 6.2209375 21.218937 6.5953125 21.316891 6.9453125 21.212891 C 7.2943125 21.110891 7.560625 20.826656 7.640625 20.472656 C 7.805625 19.740656 8.4697031 19.207031 9.2207031 19.207031 z M 7.2382812 22.320312 C 7.1461426 22.326475 7.0536875 22.342312 6.9609375 22.367188 C 6.2189375 22.566187 5.7708906 23.309391 5.9628906 24.025391 C 6.1538906 24.741391 6.9122969 25.161891 7.6542969 24.962891 C 8.3962969 24.763891 8.8443438 24.020688 8.6523438 23.304688 C 8.4852188 22.678187 7.883252 22.277178 7.2382812 22.320312 z M 26.996094 30.611328 C 31.554094 30.612328 35.232609 32.258437 35.974609 35.023438 C 36.523609 37.071438 35.358141 39.390813 33.119141 41.382812 C 30.978141 43.069812 28.350953 44.417844 25.376953 45.214844 C 21.896953 46.146844 18.371594 46.219703 15.183594 45.470703 C 12.868594 44.709703 11.349297 43.402234 10.904297 41.740234 C 10.426297 39.960234 11.20575 37.915422 13.09375 35.982422 C 15.11575 33.913422 18.121688 32.267656 21.554688 31.347656 C 23.420687 30.847656 25.271094 30.611328 26.996094 30.611328 z M 31.5 33 A 1.5 2.5 0 0 0 31.5 38 A 1.5 2.5 0 0 0 31.5 33 z M 15.5 36 A 1.5 2.5 0 0 0 15.5 41 A 1.5 2.5 0 0 0 15.5 36 z M 24.916016 37.992188 C 24.730547 37.97325 24.529922 37.979875 24.326172 38.015625 C 23.511172 38.158625 22.926484 38.716766 23.021484 39.259766 C 23.116484 39.802766 23.856875 40.127375 24.671875 39.984375 C 25.486875 39.841375 26.071562 39.283234 25.976562 38.740234 C 25.905313 38.332984 25.472422 38.049 24.916016 37.992188 z M 26.992188 39.990234 A 1.0001 1.0001 0 0 0 26.304688 40.292969 C 25.558066 41.039589 24.673422 41.22717 23.154297 41.009766 A 1.0003071 1.0003071 0 0 0 22.871094 42.990234 C 24.719969 43.25483 26.46537 42.960414 27.71875 41.707031 A 1.0001 1.0001 0 0 0 26.992188 39.990234 z"/></svg>