<svg xmlns="http://www.w3.org/2000/svg"  viewBox="0 0 50 50" width="50px" height="50px"><path d="M 28.916016 0.00390625 C 28.638938 0.02715625 28.379078 0.16653125 28.205078 0.39453125 C 27.974078 0.69753125 27.934469 1.1052656 28.105469 1.4472656 C 28.113469 1.4612656 29 3.5 29 6 C 27 4 25 3 20.5 3 C 15.399 3 13.192016 5.6491719 12.416016 6.9511719 C 11.594016 6.7831719 9.8287813 6.1043906 7.8007812 3.4003906 C 7.5427812 3.0563906 7.0905938 2.9147812 6.6835938 3.0507812 C 6.2745938 3.1877813 6 3.569 6 4 C 6 6.185 6.8126406 8.531 7.4316406 10 L 3 10 C 2.495 10 2.0698125 10.376906 2.0078125 10.878906 C 1.9458125 11.379906 2.2678125 11.848703 2.7578125 11.970703 C 5.5808125 12.676703 6.5834375 14.211578 6.8984375 14.892578 C 6.3154375 15.921578 5 18.617 5 22 C 5 29.340118 10.406193 31.362499 12.226562 31.839844 C 12.750254 33.45438 14.178958 34.664848 15.955078 34.888672 C 15.926908 35.946855 15.815762 38.611953 15.029297 41.757812 C 14.705439 43.055088 14 44.891833 14 49 A 1.0001 1.0001 0 1 0 16 49 C 16 45.108167 16.592561 43.756911 16.970703 42.242188 C 18.008748 38.090007 18 34 18 34 A 1.0001 1.0001 0 0 0 17 33 L 16.5 33 C 15.022333 33 14 31.915669 14 30.5 C 14 29.030183 14.973457 28 16 28 C 16.75 28 17.185226 28.245244 17.501953 28.601562 C 17.81868 28.957881 18 29.472222 18 30 A 1.0001 1.0001 0 1 0 20 30 C 20 24.781 18 20 17 19 L 19.552734 19.894531 C 19.862734 20.048531 20.230391 20.033563 20.525391 19.851562 C 20.819391 19.668563 21 19.347 21 19 C 21 18.858 21 16 18 14 C 25.403 14.308 30.843203 16.062578 34.033203 17.892578 C 34.345645 18.071573 34.687389 18.231423 35.041016 18.373047 C 35.091698 18.854333 35.270629 19.850248 35.951172 21.037109 C 34.748394 21.158793 33.665686 21.672084 32.820312 22.445312 C 31.725226 20.966147 29.972412 20 28 20 C 26.083334 20 24.518559 20.754756 23.501953 21.898438 C 22.485347 23.042119 22 24.527778 22 26 C 22 27.472222 22.485347 28.957882 23.501953 30.101562 C 24.518559 31.245244 26.083334 32 28 32 C 30.196542 32 32.12043 30.802762 33.166016 29.03125 C 33.266011 29.059149 33.408756 29.110879 33.611328 29.232422 C 34.034565 29.486364 34.614027 30.006143 35.050781 31.316406 A 1.0001 1.0001 0 0 0 36 32 L 38 32 C 38.56503 32 39 32.43497 39 33 C 39 33.547525 38.588261 33.964402 38.048828 33.990234 A 1.0001 1.0001 0 0 0 37.988281 33.988281 A 1.0001 1.0001 0 0 0 37.851562 34 L 34 34 A 1.0001 1.0001 0 1 0 34 36 L 37.464844 36 L 40.726562 40.894531 C 40.626008 40.980871 40.577855 41.047643 40.414062 41.148438 C 39.777012 41.540469 38.601852 42 36.5 42 C 32.808822 42 30.062769 41.27742 28.248047 40.568359 C 26.639422 39.939827 25.92492 39.428511 25.757812 39.304688 C 25.897324 38.911976 26 38.487653 26 38 A 1.0001 1.0001 0 0 0 24.984375 36.986328 A 1.0001 1.0001 0 0 0 24 38 C 24 39.333333 22.552734 40.105469 22.552734 40.105469 A 1.0001163 1.0001163 0 1 0 23.447266 41.894531 C 23.447266 41.894531 24.05942 41.594942 24.683594 40.982422 C 25.011172 41.212969 25.867758 41.786248 27.519531 42.431641 C 28.678922 42.884643 30.170617 43.328293 31.966797 43.628906 C 31.951171 43.661898 31.952924 43.674227 31.933594 43.710938 C 31.736445 44.085265 31.365158 44.568023 30.460938 44.955078 C 29.998963 45.152661 29.182302 45.460324 28.433594 46.066406 C 27.684885 46.672488 27 47.686667 27 49 A 1.0001 1.0001 0 1 0 29 49 C 29 48.313333 29.256365 47.973262 29.691406 47.621094 C 30.126448 47.268926 30.73502 47.014339 31.248047 46.794922 C 32.553827 46.235977 33.317773 45.376203 33.703125 44.644531 C 33.847686 44.370052 33.933227 44.114934 33.996094 43.886719 C 34.785629 43.956095 35.61493 44 36.5 44 C 38.898148 44 40.472988 43.459531 41.460938 42.851562 C 41.954912 42.547579 42.299168 42.229243 42.525391 41.970703 C 42.751613 41.712163 42.894531 41.447266 42.894531 41.447266 A 1.0001 1.0001 0 0 0 42.832031 40.445312 L 39.564453 35.542969 C 40.419902 35.011865 41 34.071462 41 33 C 41 32.108827 40.594797 31.311389 39.96875 30.759766 C 41.206482 29.749171 42 28.213339 42 26.5 C 42 24.536644 40.954878 22.81152 39.396484 21.837891 L 39.402344 21.828125 C 37.942069 20.915521 37.378928 19.739621 37.154297 18.931641 C 37.444982 18.970415 37.732172 19 38 19 C 41.757 19 44 16.757 44 13 C 44 5.55 38.888 1.3429688 38.625 1.1679688 C 38.293 0.94696875 37.862344 0.94315625 37.527344 1.1601562 C 37.192344 1.3761562 37.017984 1.7710625 37.083984 2.1640625 L 38.070312 7 C 36.070312 4 32.224313 0.62453125 29.195312 0.01953125 C 29.101562 0.00053125 29.008375 -0.00384375 28.916016 0.00390625 z M 28 22 C 30.220986 22 32 23.779015 32 26 C 32 28.220985 30.220986 30 28 30 C 26.583334 30 25.648107 29.504756 24.998047 28.773438 C 24.347987 28.042119 24 27.027778 24 26 C 24 24.972222 24.347987 23.957882 24.998047 23.226562 C 25.648107 22.495244 26.583334 22 28 22 z M 36.5 23 C 38.444423 23 40 24.555577 40 26.5 C 40 28.413594 38.491014 29.941978 36.589844 29.990234 C 36.033 28.783306 35.324437 27.929037 34.638672 27.517578 C 34.371823 27.357469 34.117813 27.258111 33.880859 27.181641 C 33.958022 26.799049 34 26.404572 34 26 C 34 25.425731 33.911979 24.872429 33.759766 24.345703 C 33.759766 24.345703 33.761719 24.34375 33.761719 24.34375 C 34.400761 23.524628 35.37943 23 36.5 23 z M 29 25 A 1 1 0 0 0 29 27 A 1 1 0 0 0 29 25 z M 38 25 A 1 1 0 0 0 38 27 A 1 1 0 0 0 38 25 z"/></svg>