<svg xmlns="http://www.w3.org/2000/svg"  viewBox="0 0 50 50" width="50px" height="50px"><path d="M 13.5 5 C 11.019531 5 9 7.019531 9 9.5 C 9 10.128906 9.132813 10.722656 9.359375 11.265625 C 9.304688 11.3125 9.238281 11.351563 9.191406 11.410156 C 8.855469 11.871094 1 22.804688 1 34 C 1 34.402344 1.019531 34.789063 1.046875 35.160156 C 1.054688 35.265625 1.0625 35.363281 1.070313 35.464844 C 1.097656 35.761719 1.136719 36.046875 1.179688 36.324219 C 1.191406 36.386719 1.199219 36.453125 1.210938 36.515625 C 1.257813 36.769531 1.3125 37.019531 1.375 37.253906 C 1.375 37.265625 1.382813 37.273438 1.382813 37.28125 C 2.511719 41.59375 5.839844 42 7 42 C 8.730469 42 12 40.953125 12 37 C 12 34.390625 9.890625 33 8.367188 33 C 6.851563 33 5 34.386719 5 36 C 5 36.554688 5.445313 37 6 37 C 6.554688 37 7 36.554688 7 36 C 7 35.65625 7.816406 35 8.367188 35 C 8.847656 35 10 35.574219 10 37 C 10 39.824219 7.496094 39.992188 7 40 C 5.859375 40 4.132813 39.546875 3.375 37.015625 C 3.894531 35.226563 7.179688 24.230469 11.5625 18.71875 C 10.574219 17.5625 10 16.066406 10 14.5 C 10 13.496094 10.222656 12.539063 10.652344 11.683594 C 11.328125 10.265625 12.492188 9.152344 13.921875 8.535156 C 14.152344 8.132813 14.417969 7.753906 14.726563 7.402344 C 15.199219 6.859375 15.75 6.402344 16.347656 6.03125 C 15.574219 5.394531 14.589844 5 13.5 5 Z M 35.5 5 C 34.410156 5 33.425781 5.394531 32.652344 6.03125 C 33.25 6.402344 33.800781 6.855469 34.269531 7.398438 C 34.578125 7.75 34.851563 8.132813 35.078125 8.535156 C 36.511719 9.152344 37.675781 10.265625 38.34375 11.667969 C 38.78125 12.542969 39 13.496094 39 14.5 C 39 16.066406 38.425781 17.5625 37.4375 18.71875 C 41.808594 24.214844 45.097656 35.183594 45.621094 37 C 44.867188 39.539063 43.140625 40 42.003906 40 C 41.503906 39.992188 39 39.824219 39 37 C 39 35.574219 40.152344 35 40.632813 35 C 41.183594 35 42 35.65625 42 36 C 42 36.554688 42.445313 37 43 37 C 43.554688 37 44 36.554688 44 36 C 44 34.386719 42.148438 33 40.632813 33 C 39.109375 33 37 34.390625 37 37 C 37 40.953125 40.269531 42 42 42 C 43.160156 42 46.488281 41.597656 47.613281 37.285156 C 47.617188 37.273438 47.625 37.265625 47.628906 37.253906 C 47.691406 37.015625 47.746094 36.765625 47.796875 36.5 C 47.800781 36.460938 47.804688 36.414063 47.8125 36.371094 C 47.863281 36.074219 47.902344 35.761719 47.933594 35.441406 C 47.941406 35.355469 47.945313 35.273438 47.953125 35.1875 C 47.980469 34.804688 48 34.410156 48 34 C 48 22.804688 40.144531 11.871094 39.8125 11.410156 C 39.804688 11.40625 39.796875 11.402344 39.792969 11.394531 C 39.75 11.339844 39.691406 11.308594 39.640625 11.265625 C 39.871094 10.71875 40 10.128906 40 9.5 C 40 7.019531 37.980469 5 35.5 5 Z M 20 7 C 18.554688 7 17.179688 7.625 16.234375 8.710938 C 15.863281 9.140625 15.566406 9.628906 15.359375 10.148438 C 14.097656 10.484375 13.019531 11.363281 12.453125 12.546875 C 12.152344 13.148438 12 13.808594 12 14.5 C 12 16.117188 12.867188 17.59375 14.246094 18.390625 C 14.453125 18.957031 14.785156 19.453125 15.203125 19.859375 L 15.921875 26.339844 L 8.648438 29.0625 C 8.300781 29.195313 8.054688 29.507813 8.007813 29.878906 C 7.964844 30.246094 8.125 30.609375 8.429688 30.824219 L 14.59375 35.089844 C 14.191406 35.265625 13.953125 35.6875 14.007813 36.125 L 15.007813 44.125 C 15.046875 44.4375 15.230469 44.710938 15.503906 44.867188 C 15.777344 45.023438 16.105469 45.042969 16.394531 44.921875 L 22.457031 42.324219 C 23.035156 42.742188 23.738281 43 24.5 43 C 25.261719 43 25.964844 42.742188 26.542969 42.324219 L 32.605469 44.921875 C 32.894531 45.042969 33.222656 45.023438 33.496094 44.867188 C 33.769531 44.710938 33.953125 44.4375 33.992188 44.125 L 34.992188 36.125 C 35.046875 35.6875 34.808594 35.265625 34.40625 35.089844 L 40.566406 30.824219 C 40.875 30.609375 41.035156 30.246094 40.992188 29.878906 C 40.945313 29.507813 40.699219 29.195313 40.351563 29.0625 L 33.078125 26.339844 L 33.800781 19.855469 C 34.214844 19.449219 34.546875 18.953125 34.753906 18.386719 C 36.132813 17.59375 37 16.117188 37 14.5 C 37 13.808594 36.847656 13.148438 36.550781 12.558594 C 35.984375 11.363281 34.902344 10.484375 33.640625 10.148438 C 33.433594 9.628906 33.136719 9.140625 32.765625 8.714844 C 31.820313 7.625 30.445313 7 29 7 C 27.289063 7 25.582031 7.828125 24.5 9.058594 C 23.421875 7.828125 21.707031 7 20 7 Z M 22.5 17 C 23.3125 17 23.59375 17.429688 23.605469 17.449219 C 23.769531 17.773438 24.109375 17.96875 24.472656 17.980469 C 24.882813 18.007813 25.191406 17.789063 25.378906 17.476563 C 25.410156 17.429688 25.6875 17 26.5 17 C 26.835938 17 27.164063 17.113281 27.421875 17.3125 C 27.789063 17.605469 28 18.039063 28 18.5 C 28 18.628906 27.980469 18.757813 27.941406 18.894531 C 27.8125 19.386719 27.425781 19.785156 26.9375 19.933594 C 26.515625 20.0625 26.226563 20.457031 26.230469 20.894531 C 26.234375 21.339844 26.523438 21.726563 26.949219 21.847656 C 27.289063 21.949219 27.644531 22 28 22 C 28.996094 22 29.941406 21.636719 30.660156 20.984375 C 31.007813 21.011719 31.34375 20.988281 31.667969 20.933594 L 31.039063 26.582031 C 30.15625 27.828125 28.457031 29.246094 26.933594 30.300781 C 25.613281 31.214844 24.839844 31.632813 24.5 31.824219 C 24.160156 31.632813 23.386719 31.214844 22.066406 30.300781 C 20.542969 29.246094 18.84375 27.828125 17.960938 26.582031 L 17.332031 20.9375 C 17.65625 20.988281 17.992188 21.015625 18.339844 20.984375 C 19.316406 21.867188 20.75 22.230469 22.050781 21.851563 C 22.476563 21.726563 22.765625 21.339844 22.769531 20.894531 C 22.773438 20.453125 22.484375 20.066406 22.0625 19.9375 C 21.574219 19.785156 21.1875 19.386719 21.050781 18.878906 C 21.019531 18.757813 21 18.628906 21 18.5 C 21 18.039063 21.210938 17.605469 21.578125 17.316406 C 21.835938 17.113281 22.164063 17 22.5 17 Z M 20.21875 22 C 19.527344 22.023438 18.761719 22.160156 18 22.515625 L 19 23 C 19 23 18.972656 23.65625 19.027344 24.359375 C 19.089844 24.15625 19.273438 24 19.5 24 C 19.777344 24 20 24.222656 20 24.5 C 20 24.777344 19.777344 25 19.5 25 C 19.308594 25 19.152344 24.890625 19.066406 24.734375 C 19.136719 25.296875 19.273438 25.824219 19.53125 26 L 22.355469 26 C 22.355469 26 22.867188 25.757813 22.980469 23.46875 C 23.007813 22.867188 22.597656 22.335938 22.011719 22.191406 C 21.53125 22.078125 20.910156 21.980469 20.21875 22 Z M 28.78125 22 C 28.089844 21.980469 27.46875 22.078125 26.988281 22.191406 C 26.402344 22.332031 25.992188 22.867188 26.019531 23.46875 C 26.132813 25.753906 26.644531 26 26.644531 26 L 29.46875 26 C 29.726563 25.824219 29.863281 25.296875 29.933594 24.734375 C 29.847656 24.890625 29.691406 25 29.5 25 C 29.222656 25 29 24.777344 29 24.5 C 29 24.222656 29.222656 24 29.5 24 C 29.726563 24 29.910156 24.15625 29.972656 24.359375 C 30.027344 23.65625 30 23 30 23 L 31 22.515625 C 30.238281 22.160156 29.472656 22.023438 28.78125 22 Z M 21 23 C 21.449219 23 21.8125 23.546875 21.8125 24.226563 C 21.8125 24.902344 21.449219 25.453125 21 25.453125 C 20.550781 25.453125 20.1875 24.90625 20.1875 24.226563 C 20.1875 23.550781 20.550781 23 21 23 Z M 28 23 C 28.449219 23 28.8125 23.546875 28.8125 24.226563 C 28.8125 24.902344 28.449219 25.453125 28 25.453125 C 27.550781 25.453125 27.1875 24.90625 27.1875 24.226563 C 27.1875 23.550781 27.550781 23 28 23 Z M 23.480469 27 C 23.121094 27 22.894531 27.375 23.050781 27.691406 L 24.070313 29.734375 C 24.246094 30.085938 24.75 30.085938 24.925781 29.734375 L 25.949219 27.691406 C 26.105469 27.375 25.875 27 25.519531 27 Z M 16.539063 28.238281 L 21.164063 36.722656 L 19.972656 36.382813 L 11.140625 30.265625 Z M 32.460938 28.238281 L 37.859375 30.265625 L 29.019531 36.382813 L 27.835938 36.722656 Z M 20.773438 31.832031 C 20.824219 31.871094 20.878906 31.910156 20.933594 31.949219 C 22.601563 33.105469 24.019531 33.875 24.019531 33.875 C 24.320313 34.039063 24.679688 34.039063 24.980469 33.875 C 24.980469 33.875 26.398438 33.105469 28.066406 31.949219 C 28.121094 31.910156 28.175781 31.871094 28.226563 31.832031 L 25.8125 36.261719 C 25.40625 36.09375 24.964844 36 24.5 36 C 24.035156 36 23.59375 36.09375 23.1875 36.261719 Z M 16.179688 37.375 L 21.078125 38.777344 C 21.03125 39.011719 21 39.25 21 39.5 C 21 39.914063 21.085938 40.304688 21.21875 40.671875 L 16.828125 42.558594 Z M 32.820313 37.375 L 32.171875 42.558594 L 27.78125 40.671875 C 27.914063 40.304688 28 39.914063 28 39.5 C 28 39.25 27.96875 39.011719 27.921875 38.777344 Z M 24.5 38 C 25.339844 38 26 38.660156 26 39.5 C 26 40.339844 25.339844 41 24.5 41 C 23.660156 41 23 40.339844 23 39.5 C 23 38.660156 23.660156 38 24.5 38 Z"/></svg>