<svg xmlns="http://www.w3.org/2000/svg"  viewBox="0 0 50 50" width="50px" height="50px"><path d="M 25 1 C 15.83 1 13.169844 17.839922 10.589844 33.169922 C 9.7698437 38.049922 8.9892969 43.659531 8.0292969 47.769531 C 7.8992969 48.309531 8.2295312 48.850703 8.7695312 48.970703 C 8.8495313 48.990703 9 48.99 9 49 L 41 49 C 41 49 41.150469 48.990703 41.230469 48.970703 C 41.770469 48.850703 42.100703 48.309531 41.970703 47.769531 C 41.010703 43.659531 40.230156 38.049922 39.410156 33.169922 C 36.830156 17.839922 34.17 1 25 1 z M 28.595703 15.003906 C 28.789922 15.01625 28.984922 15.067656 29.169922 15.160156 L 31.169922 16.160156 C 31.909922 16.530156 32.209844 17.429922 31.839844 18.169922 C 31.579844 18.699922 31.05 19 30.5 19 C 30.27 19 30.040078 18.949844 29.830078 18.839844 L 27.830078 17.839844 C 27.090078 17.469844 26.790156 16.570078 27.160156 15.830078 C 27.437656 15.275078 28.013047 14.966875 28.595703 15.003906 z M 21.404297 16.003906 C 21.986953 15.966875 22.562344 16.275078 22.839844 16.830078 C 23.209844 17.570078 22.909922 18.469844 22.169922 18.839844 L 20.169922 19.839844 C 19.959922 19.949844 19.73 20 19.5 20 C 18.95 20 18.420156 19.699922 18.160156 19.169922 C 17.790156 18.429922 18.090078 17.530156 18.830078 17.160156 L 20.830078 16.160156 C 21.015078 16.067656 21.210078 16.01625 21.404297 16.003906 z M 20.5 23 C 22.61 23 24.379141 25.089922 24.869141 27.919922 C 24.889141 27.969922 24.94 28 25 28 C 25.06 28 25.110859 27.969922 25.130859 27.919922 C 25.620859 25.089922 27.39 23 29.5 23 C 31.99 23 34 25.91 34 29.5 C 34 33.09 31.99 36 29.5 36 C 27.73 36 26.210703 34.540156 25.470703 32.410156 L 25.439453 32.320312 C 25.369453 32.140313 25.2 32 25 32 C 24.8 32 24.630547 32.140312 24.560547 32.320312 L 24.529297 32.410156 C 23.789297 34.540156 22.27 36 20.5 36 C 18.01 36 16 33.09 16 29.5 C 16 25.91 18.01 23 20.5 23 z M 20.5 28 A 1.5 2 0 0 0 20.5 32 A 1.5 2 0 0 0 20.5 28 z M 29.5 28 A 1.5 2 0 0 0 29.5 32 A 1.5 2 0 0 0 29.5 28 z M 17 39 C 17.55 39 18 39.45 18 40 C 18 40.35 17.809063 40.640312 17.539062 40.820312 C 22.119062 43.630313 27.880938 43.630313 32.460938 40.820312 C 32.190937 40.640313 32 40.35 32 40 C 32 39.45 32.45 39 33 39 C 33.87 39 34.729766 39.449688 35.259766 40.179688 C 35.719766 40.819688 35.859141 41.600547 35.619141 42.310547 C 35.479141 42.730547 35.089922 43 34.669922 43 C 34.569922 43 34.459375 42.979219 34.359375 42.949219 C 34.069375 42.849219 33.86 42.629375 33.75 42.359375 C 31.08 44.069375 28.04 44.929688 25 44.929688 C 21.96 44.929688 18.92 44.069375 16.25 42.359375 C 16.14 42.629375 15.930625 42.849219 15.640625 42.949219 C 15.540625 42.979219 15.430078 43 15.330078 43 C 14.910078 43 14.520859 42.730547 14.380859 42.310547 C 14.140859 41.600547 14.280234 40.819688 14.740234 40.179688 C 15.270234 39.449688 16.13 39 17 39 z"/></svg>