<?xml version="1.0" encoding="UTF-8"?>
<!--Generator: Apple Native CoreSVG 232.5-->
<!DOCTYPE svg
PUBLIC "-//W3C//DTD SVG 1.1//EN"
       "http://www.w3.org/Graphics/SVG/1.1/DTD/svg11.dtd">
<svg version="1.1" xmlns="http://www.w3.org/2000/svg" xmlns:xlink="http://www.w3.org/1999/xlink" width="3300" height="2200">
 <!--glyph: "", point size: 100.0, font version: "19.0d8e1", template writer version: "128"-->
 <style>.monochrome-0 {-sfsymbols-motion-group:3}
.monochrome-1 {opacity:0.0;-sfsymbols-clear-behind:true;-sfsymbols-motion-group:2}
.monochrome-2 {-sfsymbols-motion-group:2}
.monochrome-3 {opacity:0.0;-sfsymbols-clear-behind:true;-sfsymbols-motion-group:1}
.monochrome-4 {-sfsymbols-motion-group:1}
.monochrome-5 {opacity:0.0;-sfsymbols-clear-behind:true;-sfsymbols-motion-group:0;-sfsymbols-always-pulses:true}

.multicolor-0:tintColor {-sfsymbols-motion-group:3}
.multicolor-1:tintColor {opacity:0.0;-sfsymbols-clear-behind:true;-sfsymbols-motion-group:2}
.multicolor-2:tintColor {-sfsymbols-motion-group:2}
.multicolor-3:tintColor {opacity:0.0;-sfsymbols-clear-behind:true;-sfsymbols-motion-group:1}
.multicolor-4:tintColor {-sfsymbols-motion-group:1}
.multicolor-5:white {-sfsymbols-motion-group:0;-sfsymbols-always-pulses:true}

.hierarchical-0:tertiary {-sfsymbols-motion-group:3}
.hierarchical-1:primary {opacity:0.0;-sfsymbols-clear-behind:true;-sfsymbols-motion-group:2}
.hierarchical-2:tertiary {-sfsymbols-motion-group:2}
.hierarchical-3:primary {opacity:0.0;-sfsymbols-clear-behind:true;-sfsymbols-motion-group:1}
.hierarchical-4:tertiary {-sfsymbols-motion-group:1}
.hierarchical-5:primary {-sfsymbols-motion-group:0}

.SFSymbolsPreviewWireframe {fill:none;opacity:1.0;stroke:black;stroke-width:0.5}
</style>
 <g id="Notes">
  <rect height="2200" id="artboard" style="fill:white;opacity:1" width="3300" x="0" y="0"/>
  <line style="fill:none;stroke:black;opacity:1;stroke-width:0.5;" x1="263" x2="3036" y1="292" y2="292"/>
  <text style="stroke:none;fill:black;font-family:sans-serif;font-size:13;font-weight:bold;" transform="matrix(1 0 0 1 263 322)">Weight/Scale Variations</text>
  <text style="stroke:none;fill:black;font-family:sans-serif;font-size:13;text-anchor:middle;" transform="matrix(1 0 0 1 559.711 322)">Ultralight</text>
  <text style="stroke:none;fill:black;font-family:sans-serif;font-size:13;text-anchor:middle;" transform="matrix(1 0 0 1 856.422 322)">Thin</text>
  <text style="stroke:none;fill:black;font-family:sans-serif;font-size:13;text-anchor:middle;" transform="matrix(1 0 0 1 1153.13 322)">Light</text>
  <text style="stroke:none;fill:black;font-family:sans-serif;font-size:13;text-anchor:middle;" transform="matrix(1 0 0 1 1449.84 322)">Regular</text>
  <text style="stroke:none;fill:black;font-family:sans-serif;font-size:13;text-anchor:middle;" transform="matrix(1 0 0 1 1746.56 322)">Medium</text>
  <text style="stroke:none;fill:black;font-family:sans-serif;font-size:13;text-anchor:middle;" transform="matrix(1 0 0 1 2043.27 322)">Semibold</text>
  <text style="stroke:none;fill:black;font-family:sans-serif;font-size:13;text-anchor:middle;" transform="matrix(1 0 0 1 2339.98 322)">Bold</text>
  <text style="stroke:none;fill:black;font-family:sans-serif;font-size:13;text-anchor:middle;" transform="matrix(1 0 0 1 2636.69 322)">Heavy</text>
  <text style="stroke:none;fill:black;font-family:sans-serif;font-size:13;text-anchor:middle;" transform="matrix(1 0 0 1 2933.4 322)">Black</text>
  <line style="fill:none;stroke:black;opacity:1;stroke-width:0.5;" x1="263" x2="3036" y1="1903" y2="1903"/>
  <g transform="matrix(0.2 0 0 0.2 263 1933)">
   <path d="m46.2402 4.15039c21.5332 0 39.4531-17.8711 39.4531-39.4043s-17.9688-39.4043-39.502-39.4043c-21.4844 0-39.3555 17.8711-39.3555 39.4043s17.9199 39.4043 39.4043 39.4043Zm0-7.42188c-17.7246 0-31.8848-14.209-31.8848-31.9824s14.1113-31.9824 31.8359-31.9824c17.7734 0 32.0312 14.209 32.0312 31.9824s-14.209 31.9824-31.9824 31.9824Zm-17.9688-31.9824c0 2.14844 1.51367 3.61328 3.75977 3.61328h10.498v10.5957c0 2.19727 1.46484 3.71094 3.61328 3.71094 2.24609 0 3.71094-1.51367 3.71094-3.71094v-10.5957h10.5957c2.19727 0 3.71094-1.46484 3.71094-3.61328 0-2.19727-1.51367-3.71094-3.71094-3.71094h-10.5957v-10.5469c0-2.24609-1.46484-3.75977-3.71094-3.75977-2.14844 0-3.61328 1.51367-3.61328 3.75977v10.5469h-10.498c-2.24609 0-3.75977 1.51367-3.75977 3.71094Z"/>
  </g>
  <g transform="matrix(0.2 0 0 0.2 281.506 1933)">
   <path d="m58.5449 14.5508c27.2461 0 49.8047-22.6074 49.8047-49.8047 0-27.2461-22.6074-49.8047-49.8535-49.8047-27.1973 0-49.7559 22.5586-49.7559 49.8047 0 27.1973 22.6074 49.8047 49.8047 49.8047Zm0-8.30078c-23.0469 0-41.4551-18.457-41.4551-41.5039s18.3594-41.5039 41.4062-41.5039 41.5527 18.457 41.5527 41.5039-18.457 41.5039-41.5039 41.5039Zm-22.6562-41.5039c0 2.39258 1.66016 4.00391 4.15039 4.00391h14.3555v14.4043c0 2.44141 1.66016 4.15039 4.05273 4.15039 2.44141 0 4.15039-1.66016 4.15039-4.15039v-14.4043h14.4043c2.44141 0 4.15039-1.61133 4.15039-4.00391 0-2.44141-1.70898-4.15039-4.15039-4.15039h-14.4043v-14.3555c0-2.49023-1.70898-4.19922-4.15039-4.19922-2.39258 0-4.05273 1.70898-4.05273 4.19922v14.3555h-14.3555c-2.49023 0-4.15039 1.70898-4.15039 4.15039Z"/>
  </g>
  <g transform="matrix(0.2 0 0 0.2 304.924 1933)">
   <path d="m74.8535 28.3203c34.8145 0 63.623-28.8086 63.623-63.5742 0-34.8145-28.8574-63.623-63.6719-63.623-34.7656 0-63.5254 28.8086-63.5254 63.623 0 34.7656 28.8086 63.5742 63.5742 63.5742Zm0-9.08203c-30.1758 0-54.4434-24.3164-54.4434-54.4922 0-30.2246 24.2188-54.4922 54.3945-54.4922 30.2246 0 54.541 24.2676 54.541 54.4922 0 30.1758-24.2676 54.4922-54.4922 54.4922Zm-28.8574-54.4922c0 2.58789 1.85547 4.39453 4.58984 4.39453h19.7266v19.7754c0 2.68555 1.85547 4.58984 4.44336 4.58984 2.68555 0 4.54102-1.85547 4.54102-4.58984v-19.7754h19.7754c2.68555 0 4.58984-1.80664 4.58984-4.39453 0-2.73438-1.85547-4.58984-4.58984-4.58984h-19.7754v-19.7266c0-2.73438-1.85547-4.63867-4.54102-4.63867-2.58789 0-4.44336 1.9043-4.44336 4.63867v19.7266h-19.7266c-2.73438 0-4.58984 1.85547-4.58984 4.58984Z"/>
  </g>
  <text style="stroke:none;fill:black;font-family:sans-serif;font-size:13;font-weight:bold;" transform="matrix(1 0 0 1 263 1953)">Design Variations</text>
  <text style="stroke:none;fill:black;font-family:sans-serif;font-size:13;" transform="matrix(1 0 0 1 263 1971)">Symbols are supported in up to nine weights and three scales.</text>
  <text style="stroke:none;fill:black;font-family:sans-serif;font-size:13;" transform="matrix(1 0 0 1 263 1989)">For optimal layout with text and other symbols, vertically align</text>
  <text style="stroke:none;fill:black;font-family:sans-serif;font-size:13;" transform="matrix(1 0 0 1 263 2007)">symbols with the adjacent text.</text>
  <line style="fill:none;stroke:#00AEEF;stroke-width:0.5;opacity:1.0;" x1="776" x2="776" y1="1919" y2="1933"/>
  <g transform="matrix(0.2 0 0 0.2 776 1933)">
   <path d="m16.5527 0.78125c2.58789 0 3.85742-0.976562 4.78516-3.71094l6.29883-17.2363h28.8086l6.29883 17.2363c0.927734 2.73438 2.19727 3.71094 4.73633 3.71094 2.58789 0 4.24805-1.5625 4.24805-4.00391 0-0.830078-0.146484-1.61133-0.537109-2.63672l-22.9004-60.9863c-1.12305-2.97852-3.125-4.49219-6.25-4.49219-3.02734 0-5.07812 1.46484-6.15234 4.44336l-22.9004 61.084c-0.390625 1.02539-0.537109 1.80664-0.537109 2.63672 0 2.44141 1.5625 3.95508 4.10156 3.95508Zm13.4766-28.3691 11.8652-32.8613h0.244141l11.8652 32.8613Z"/>
  </g>
  <line style="fill:none;stroke:#00AEEF;stroke-width:0.5;opacity:1.0;" x1="792.836" x2="792.836" y1="1919" y2="1933"/>
  <text style="stroke:none;fill:black;font-family:sans-serif;font-size:13;font-weight:bold;" transform="matrix(1 0 0 1 776 1953)">Margins</text>
  <text style="stroke:none;fill:black;font-family:sans-serif;font-size:13;" transform="matrix(1 0 0 1 776 1971)">Leading and trailing margins on the left and right side of each symbol</text>
  <text style="stroke:none;fill:black;font-family:sans-serif;font-size:13;" transform="matrix(1 0 0 1 776 1989)">can be adjusted by modifying the x-location of the margin guidelines.</text>
  <text style="stroke:none;fill:black;font-family:sans-serif;font-size:13;" transform="matrix(1 0 0 1 776 2007)">Modifications are automatically applied proportionally to all</text>
  <text style="stroke:none;fill:black;font-family:sans-serif;font-size:13;" transform="matrix(1 0 0 1 776 2025)">scales and weights.</text>
  <g transform="matrix(0.2 0 0 0.2 1289 1933)">
   <path d="m14.209 9.32617 8.49609 8.54492c4.29688 4.3457 9.22852 4.05273 13.8672-1.07422l53.4668-58.9355-4.83398-4.88281-53.0762 58.3984c-1.75781 2.00195-3.41797 2.49023-5.76172 0.146484l-5.85938-5.81055c-2.34375-2.29492-1.80664-4.00391 0.195312-5.81055l57.373-54.0039-4.88281-4.83398-57.959 54.4434c-4.93164 4.58984-5.32227 9.47266-1.02539 13.8184Zm32.0801-90.9668c-2.09961 2.05078-2.24609 4.93164-1.07422 6.88477 1.17188 1.80664 3.4668 2.97852 6.68945 2.14844 7.32422-1.70898 14.9414-2.00195 22.0703 2.68555l-2.92969 7.27539c-1.70898 4.15039-0.830078 7.08008 1.85547 9.81445l11.4746 11.5723c2.44141 2.44141 4.49219 2.53906 7.32422 2.05078l5.32227-0.976562 3.32031 3.36914-0.195312 2.7832c-0.195312 2.49023 0.439453 4.39453 2.88086 6.78711l3.80859 3.71094c2.39258 2.39258 5.46875 2.53906 7.8125 0.195312l14.5508-14.5996c2.34375-2.34375 2.24609-5.32227-0.146484-7.71484l-3.85742-3.80859c-2.39258-2.39258-4.24805-3.17383-6.64062-2.97852l-2.88086 0.244141-3.22266-3.17383 1.2207-5.61523c0.634766-2.83203-0.146484-5.0293-3.07617-7.95898l-10.9863-10.9375c-16.6992-16.6016-38.8672-16.2109-53.3203-1.75781Zm7.4707 1.85547c12.1582-8.88672 28.6133-7.37305 39.7461 3.75977l12.1582 12.0605c1.17188 1.17188 1.36719 2.09961 1.02539 3.80859l-1.61133 7.42188 7.51953 7.42188 4.93164-0.292969c1.26953-0.0488281 1.66016 0.0488281 2.63672 1.02539l2.88086 2.88086-12.207 12.207-2.88086-2.88086c-0.976562-0.976562-1.12305-1.36719-1.07422-2.68555l0.341797-4.88281-7.4707-7.42188-7.61719 1.26953c-1.61133 0.341797-2.34375 0.195312-3.56445-0.976562l-10.0098-10.0098c-1.26953-1.17188-1.41602-2.00195-0.634766-3.85742l4.39453-10.4492c-7.8125-7.27539-17.9688-10.4004-28.125-7.42188-0.78125 0.195312-1.07422-0.439453-0.439453-0.976562Z"/>
  </g>
  <text style="stroke:none;fill:black;font-family:sans-serif;font-size:13;font-weight:bold;" transform="matrix(1 0 0 1 1289 1953)">Exporting</text>
  <text style="stroke:none;fill:black;font-family:sans-serif;font-size:13;" transform="matrix(1 0 0 1 1289 1971)">Symbols should be outlined when exporting to ensure the</text>
  <text style="stroke:none;fill:black;font-family:sans-serif;font-size:13;" transform="matrix(1 0 0 1 1289 1989)">design is preserved when submitting to Xcode.</text>
  <text id="template-version" style="stroke:none;fill:black;font-family:sans-serif;font-size:13;text-anchor:end;" transform="matrix(1 0 0 1 3036 1933)">Template v.5.0</text>
  <text style="stroke:none;fill:black;font-family:sans-serif;font-size:13;text-anchor:end;" transform="matrix(1 0 0 1 3036 1951)">Requires Xcode 15 or greater</text>
  <text id="descriptive-name" style="stroke:none;fill:black;font-family:sans-serif;font-size:13;text-anchor:end;" transform="matrix(1 0 0 1 3036 1969)">Generated from rectangle.stack.fill</text>
  <text style="stroke:none;fill:black;font-family:sans-serif;font-size:13;text-anchor:end;" transform="matrix(1 0 0 1 3036 1987)">Typeset at 100.0 points</text>
  <text style="stroke:none;fill:black;font-family:sans-serif;font-size:13;" transform="matrix(1 0 0 1 263 726)">Small</text>
  <text style="stroke:none;fill:black;font-family:sans-serif;font-size:13;" transform="matrix(1 0 0 1 263 1156)">Medium</text>
  <text style="stroke:none;fill:black;font-family:sans-serif;font-size:13;" transform="matrix(1 0 0 1 263 1586)">Large</text>
 </g>
 <g id="Guides">
  <g id="H-reference" style="fill:#27AAE1;stroke:none;" transform="matrix(1 0 0 1 339 696)">
   <path d="M0.993654 0L3.63775 0L29.3281-67.1323L30.0303-67.1323L30.0303-70.459L28.1226-70.459ZM11.6885-24.4799L46.9815-24.4799L46.2315-26.7285L12.4385-26.7285ZM55.1196 0L57.7637 0L30.6382-70.459L29.4326-70.459L29.4326-67.1323Z"/>
  </g>
  <line id="Baseline-S" style="fill:none;stroke:#27AAE1;opacity:1;stroke-width:0.5;" x1="263" x2="3036" y1="696" y2="696"/>
  <line id="Capline-S" style="fill:none;stroke:#27AAE1;opacity:1;stroke-width:0.5;" x1="263" x2="3036" y1="625.541" y2="625.541"/>
  <g id="H-reference" style="fill:#27AAE1;stroke:none;" transform="matrix(1 0 0 1 339 1126)">
   <path d="M0.993654 0L3.63775 0L29.3281-67.1323L30.0303-67.1323L30.0303-70.459L28.1226-70.459ZM11.6885-24.4799L46.9815-24.4799L46.2315-26.7285L12.4385-26.7285ZM55.1196 0L57.7637 0L30.6382-70.459L29.4326-70.459L29.4326-67.1323Z"/>
  </g>
  <line id="Baseline-M" style="fill:none;stroke:#27AAE1;opacity:1;stroke-width:0.5;" x1="263" x2="3036" y1="1126" y2="1126"/>
  <line id="Capline-M" style="fill:none;stroke:#27AAE1;opacity:1;stroke-width:0.5;" x1="263" x2="3036" y1="1055.54" y2="1055.54"/>
  <g id="H-reference" style="fill:#27AAE1;stroke:none;" transform="matrix(1 0 0 1 339 1556)">
   <path d="M0.993654 0L3.63775 0L29.3281-67.1323L30.0303-67.1323L30.0303-70.459L28.1226-70.459ZM11.6885-24.4799L46.9815-24.4799L46.2315-26.7285L12.4385-26.7285ZM55.1196 0L57.7637 0L30.6382-70.459L29.4326-70.459L29.4326-67.1323Z"/>
  </g>
  <line id="Baseline-L" style="fill:none;stroke:#27AAE1;opacity:1;stroke-width:0.5;" x1="263" x2="3036" y1="1556" y2="1556"/>
  <line id="Capline-L" style="fill:none;stroke:#27AAE1;opacity:1;stroke-width:0.5;" x1="263" x2="3036" y1="1485.54" y2="1485.54"/>
  <line id="left-margin-Ultralight-S" style="fill:none;stroke:#00AEEF;stroke-width:0.5;opacity:1.0;" x1="510.153" x2="510.153" y1="600.785" y2="720.121"/>
  <line id="right-margin-Ultralight-S" style="fill:none;stroke:#00AEEF;stroke-width:0.5;opacity:1.0;" x1="609.269" x2="609.269" y1="600.785" y2="720.121"/>
  <line id="left-margin-Regular-S" style="fill:none;stroke:#00AEEF;stroke-width:0.5;opacity:1.0;" x1="1399.99" x2="1399.99" y1="600.785" y2="720.121"/>
  <line id="right-margin-Regular-S" style="fill:none;stroke:#00AEEF;stroke-width:0.5;opacity:1.0;" x1="1499.7" x2="1499.7" y1="600.785" y2="720.121"/>
  <line id="left-margin-Black-S" style="fill:none;stroke:#00AEEF;stroke-width:0.5;opacity:1.0;" x1="2881.45" x2="2881.45" y1="600.785" y2="720.121"/>
  <line id="right-margin-Black-S" style="fill:none;stroke:#00AEEF;stroke-width:0.5;opacity:1.0;" x1="2985.35" x2="2985.35" y1="600.785" y2="720.121"/>
 </g>
 <g id="Symbols">
  <g id="Black-S" transform="matrix(1 0 0 1 2881.45 696)">
   <path class="monochrome-0 multicolor-0:tintColor hierarchical-0:tertiary SFSymbolsPreviewWireframe" d="M33.9355-42.4316L69.9707-42.4316C74.1211-42.4316 76.6602-45.0195 76.6602-49.1211L76.6602-76.8066C76.6602-80.957 74.1211-83.4961 69.9707-83.4961L33.9355-83.4961C29.7852-83.4961 27.2461-80.957 27.2461-76.8066L27.2461-49.1211C27.2461-45.0195 29.7852-42.4316 33.9355-42.4316Z"/>
   <path class="monochrome-1 multicolor-1:tintColor hierarchical-1:primary SFSymbolsPreviewWireframe" d="M28.5645-11.5234L75.3418-11.5234C84.0332-11.5234 90.0879-17.5781 90.0879-26.2695L90.0879-62.207C90.0879-70.8984 84.0332-76.9531 75.3418-76.9531L28.5645-76.9531C19.873-76.9531 13.8184-70.8984 13.8184-62.207L13.8184-26.2695C13.8184-17.5781 19.873-11.5234 28.5645-11.5234Z"/>
   <path class="monochrome-2 multicolor-2:tintColor hierarchical-2:tertiary SFSymbolsPreviewWireframe" d="M28.5645-17.627L75.3418-17.627C80.6641-17.627 83.9844-20.9473 83.9844-26.2695L83.9844-62.207C83.9844-67.5293 80.6641-70.8496 75.3418-70.8496L28.5645-70.8496C23.2422-70.8496 19.9219-67.5293 19.9219-62.207L19.9219-26.2695C19.9219-20.9473 23.2422-17.627 28.5645-17.627Z"/>
   <path class="monochrome-3 multicolor-3:tintColor hierarchical-3:primary SFSymbolsPreviewWireframe" d="M25 19.5312L78.9062 19.5312C92.1387 19.5312 100.732 10.9375 100.732-2.29492L100.732-41.9434C100.732-55.1758 92.1387-63.7695 78.9062-63.7695L25-63.7695C11.7676-63.7695 3.17383-55.1758 3.17383-41.9434L3.17383-2.29492C3.17383 10.9375 11.7676 19.5312 25 19.5312Z"/>
   <path class="monochrome-4 multicolor-4:tintColor hierarchical-4:tertiary SFSymbolsPreviewWireframe" d="M25 12.9395L78.9062 12.9395C88.4766 12.9395 94.1406 7.27539 94.1406-2.29492L94.1406-41.9434C94.1406-51.5137 88.4766-57.1777 78.9062-57.1777L25-57.1777C15.4297-57.1777 9.76562-51.5137 9.76562-41.9434L9.76562-2.29492C9.76562 7.27539 15.4297 12.9395 25 12.9395Z"/>
   <path class="monochrome-5 multicolor-5:white hierarchical-5:primary SFSymbolsPreviewWireframe" d="M43.2111-5.97597C44.1024-5.97597 44.9604-6.20594 46.1825-6.91216L65.2526-17.9792C66.9258-18.9523 68.0545-20.1264 68.0545-21.9197C68.0545-23.713 66.9258-24.8871 65.2526-25.8603L46.1825-36.9273C44.9604-37.6335 44.1024-37.8635 43.2111-37.8635C41.2654-37.8635 39.3661-36.3652 39.3661-33.7187L39.3661-10.1208C39.3661-7.47427 41.2654-5.97597 43.2111-5.97597Z"/>
  </g>
  <g id="Regular-S" transform="matrix(1 0 0 1 1399.99 696)">
   <path class="monochrome-0 multicolor-0:tintColor hierarchical-0:tertiary SFSymbolsPreviewWireframe" d="M31.6406-40.1367L68.0664-40.1367C71.8262-40.1367 73.9746-42.2363 73.9746-45.9473L73.9746-72.5586C73.9746-76.2695 71.8262-78.3691 68.0664-78.3691L31.6406-78.3691C27.8809-78.3691 25.7324-76.2695 25.7324-72.5586L25.7324-45.9473C25.7324-42.2363 27.8809-40.1367 31.6406-40.1367Z"/>
   <path class="monochrome-1 multicolor-1:tintColor hierarchical-1:primary SFSymbolsPreviewWireframe" d="M25.6836-11.9141L74.0723-11.9141C81.8848-11.9141 87.0117-16.9434 87.0117-24.707L87.0117-60.0586C87.0117-67.8711 81.8848-72.8516 74.0723-72.8516L25.6836-72.8516C17.8223-72.8516 12.7441-67.8711 12.7441-60.0586L12.7441-24.707C12.7441-16.9434 17.8223-11.9141 25.6836-11.9141Z"/>
   <path class="monochrome-2 multicolor-2:tintColor hierarchical-2:tertiary SFSymbolsPreviewWireframe" d="M25.5371-16.8945L74.1699-16.8945C79.1992-16.8945 82.0312-19.6777 82.0312-24.6094L82.0312-60.1562C82.0312-65.1367 79.1992-67.9199 74.1699-67.9199L25.5371-67.9199C20.5078-67.9199 17.6758-65.1367 17.6758-60.1562L17.6758-24.6094C17.6758-19.6777 20.5078-16.8945 25.5371-16.8945Z"/>
   <path class="monochrome-3 multicolor-3:tintColor hierarchical-3:primary SFSymbolsPreviewWireframe" d="M22.2168 13.7207L77.5391 13.7207C89.1113 13.7207 95.8984 7.03125 95.8984-4.49219L95.8984-43.5547C95.8984-55.0293 89.1113-61.7188 77.5391-61.7188L22.2168-61.7188C10.5957-61.7188 3.80859-55.0293 3.80859-43.5547L3.80859-4.49219C3.80859 7.03125 10.5957 13.7207 22.2168 13.7207Z"/>
   <path class="monochrome-4 multicolor-4:tintColor hierarchical-4:tertiary SFSymbolsPreviewWireframe" d="M22.2168 7.76367L77.5391 7.76367C85.8398 7.76367 89.9902 3.71094 89.9902-4.49219L89.9902-43.5547C89.9902-51.709 85.8398-55.8105 77.5391-55.8105L22.2168-55.8105C13.8672-55.8105 9.76562-51.7578 9.76562-43.5547L9.76562-4.49219C9.76562 3.71094 13.8672 7.76367 22.2168 7.76367Z"/>
   <path class="monochrome-5 multicolor-5:white hierarchical-5:primary SFSymbolsPreviewWireframe" d="M39.5004-6.88924C40.4723-6.88924 41.3413-7.19697 42.4731-7.85595L65.212-20.9873C67.1417-22.1174 68.082-23.1252 68.082-24.7173C68.082-26.3094 67.1417-27.3172 65.212-28.4472L42.4731-41.5786C41.3413-42.2376 40.4723-42.5453 39.5004-42.5453C37.5707-42.5453 36.007-41.0521 36.007-38.5942L36.007-10.8404C36.007-8.38249 37.5707-6.88924 39.5004-6.88924Z"/>
  </g>
  <g id="Ultralight-S" transform="matrix(1 0 0 1 510.153 696)">
   <path class="monochrome-0 multicolor-0:tintColor hierarchical-0:tertiary SFSymbolsPreviewWireframe" d="M28.2349-37.5938L70.8818-37.5938C72.5981-37.5938 73.8384-38.7852 73.8384-40.4981L73.8384-71.3779C73.8384-73.0908 72.5981-74.3277 70.8818-74.3277L28.2349-74.3277C26.5186-74.3277 25.2783-73.0908 25.2783-71.3779L25.2783-40.4981C25.2783-38.7852 26.5186-37.5938 28.2349-37.5938Z"/>
   <path class="monochrome-1 multicolor-1:tintColor hierarchical-1:primary SFSymbolsPreviewWireframe" d="M23.1406-12.0957L75.9795-12.0957C82.5205-12.0957 87.2388-16.8071 87.2388-23.3447L87.2388-60.9214C87.2388-67.5078 82.5205-72.2158 75.9795-72.2158L23.1406-72.2158C16.5962-72.2158 11.8814-67.5078 11.8814-60.9214L11.8814-23.3447C11.8814-16.8071 16.5962-12.0957 23.1406-12.0957Z"/>
   <path class="monochrome-2 multicolor-2:tintColor hierarchical-2:tertiary SFSymbolsPreviewWireframe" d="M21.314-18.3931L77.8027-18.3931C79.7441-18.3931 80.9414-19.5869 80.9414-21.5215L80.9414-62.79C80.9414-64.728 79.7441-65.9219 77.8027-65.9219L21.314-65.9219C19.3726-65.9219 18.1753-64.728 18.1753-62.79L18.1753-21.5215C18.1753-19.5869 19.3726-18.3931 21.314-18.3931Z"/>
   <path class="monochrome-3 multicolor-3:tintColor hierarchical-3:primary SFSymbolsPreviewWireframe" d="M19.7193 11.0869L79.4009 11.0869C89.9287 11.0869 96.625 4.30666 96.625-6.17235L96.625-46.5063C96.625-56.9819 89.9287-63.7622 79.4009-63.7622L19.7193-63.7622C9.188-63.7622 2.49171-57.0727 2.49171-46.5063L2.49171-6.17235C2.49171 4.39748 9.188 11.0869 19.7193 11.0869Z"/>
   <path class="monochrome-4 multicolor-4:tintColor hierarchical-4:tertiary SFSymbolsPreviewWireframe" d="M19.7193 3.81302L79.4009 3.81302C85.9307 3.81302 89.3545 0.259793 89.3545-6.17235L89.3545-46.5063C89.3545-52.9805 85.9307-56.4917 79.4009-56.4917L19.7193-56.4917C13.186-56.4917 9.76562-53.0747 9.76562-46.5063L9.76562-6.17235C9.76562 0.350612 13.186 3.81302 19.7193 3.81302Z"/>
   <path class="monochrome-5 multicolor-5:white hierarchical-5:primary SFSymbolsPreviewWireframe" d="M39.4499-10.8022C40.0166-10.8022 40.48-10.99 41.1086-11.3632L64.2469-24.8731C65.3671-25.5344 65.8236-26.0065 65.8236-26.8173C65.8236-27.6281 65.3671-28.1002 64.2469-28.7615L41.1086-42.2714C40.48-42.6445 40.0166-42.8324 39.4499-42.8324C38.3723-42.8324 37.6792-42.0103 37.6792-40.7073L37.6792-12.9273C37.6792-11.6243 38.3723-10.8022 39.4499-10.8022Z"/>
  </g>
 </g>
</svg>
