<svg xmlns="http://www.w3.org/2000/svg"  viewBox="0 0 50 50" width="50px" height="50px"><path d="M 25 6 C 21.66 6 19.16 6.63 17.5 7.75 C 17.44159 7.7895227 17.392292 7.8342831 17.335938 7.875 C 16.328704 7.2397327 15.131664 7 14 7 L 3 7 A 1.0001 1.0001 0 0 0 2.2871094 8.7011719 C 2.2871094 8.7011719 4.1040325 10.546146 6.8144531 12.378906 C 9.2667101 14.037099 12.480197 15.725714 15.912109 16.035156 C 15.918937 16.04614 15.922789 16.05939 15.929688 16.070312 C 16.129688 16.170313 16.340547 16.259375 16.560547 16.359375 C 18.130547 17.089375 20.08 18 25 18 C 29.92 18 31.869453 17.089375 33.439453 16.359375 C 33.659453 16.259375 33.870312 16.170313 34.070312 16.070312 C 34.077211 16.05939 34.081063 16.04614 34.087891 16.035156 C 37.519803 15.725714 40.73329 14.037099 43.185547 12.378906 C 45.895968 10.546146 47.712891 8.7011719 47.712891 8.7011719 A 1.0001 1.0001 0 0 0 47 7 L 36 7 C 34.867811 7 33.66963 7.2390641 32.662109 7.875 C 30.99784 6.6753197 28.448732 6 25 6 z M 5.8125 9 L 14 9 C 14.672017 9 15.330284 9.139402 15.878906 9.3789062 C 15.296904 10.272812 15 11.317867 15 12.5 C 15 13.004028 15.054527 13.464643 15.132812 13.90625 C 12.556442 13.433372 9.9793302 12.102691 7.9355469 10.720703 C 6.6586301 9.8572643 6.5513714 9.6424353 5.8125 9 z M 36 9 L 44.1875 9 C 43.448629 9.6424353 43.34137 9.8572643 42.064453 10.720703 C 40.02067 12.102691 37.443558 13.433372 34.867188 13.90625 C 34.945473 13.464643 35 13.004028 35 12.5 C 35 11.320822 34.701083 10.274925 34.119141 9.3808594 C 34.668193 9.1407043 35.327037 9 36 9 z M 20.972656 11 C 22.497873 10.960948 24 11.837344 24 13.839844 C 21.627 16.212844 18.066406 13.839344 18.066406 12.652344 C 18.585719 11.614156 19.786377 11.030374 20.972656 11 z M 29.027344 11.001953 C 30.213623 11.032411 31.414281 11.616109 31.933594 12.654297 C 31.933594 13.840297 28.373 16.212844 26 13.839844 C 26 11.837906 27.502127 10.962793 29.027344 11.001953 z M 24 15 L 26 15 C 26 15.552 25.552 16 25 16 C 24.448 16 24 15.552 24 15 z M 14.539062 17.679688 C 14.469062 17.759688 14 18.39 14 22 C 14 23.03 18.000234 24.054766 22.740234 24.384766 C 23.570234 24.454766 24.250078 24.210938 24.830078 23.710938 C 25.860078 22.820937 26.400391 21.170703 26.650391 19.970703 C 26.140391 19.990703 25.59 20 25 20 C 19.64 20 17.460703 18.989922 15.720703 18.169922 C 15.350703 17.999922 15.000625 17.839219 14.640625 17.699219 C 14.570625 17.679219 14.539062 17.679687 14.539062 17.679688 z M 35.419922 17.679688 C 35.409922 17.689687 35.389375 17.689219 35.359375 17.699219 C 34.999375 17.839219 34.649297 17.999688 34.279297 18.179688 C 33.009297 18.769687 31.489922 19.470781 28.669922 19.800781 C 28.479922 20.990781 28.010625 22.959922 26.890625 24.419922 C 31.850625 24.139922 36 23.08 36 22 C 36 18.62 35.589922 17.849688 35.419922 17.679688 z M 12.080078 22.580078 C 11.111634 24.092037 10.272046 25.794321 9.6660156 27.134766 L 9.3847656 27.029297 C 8.8107656 26.814297 8.1700781 27.105688 7.9550781 27.679688 L 7.0976562 29.972656 C 6.8826562 30.546656 7.1720937 31.185391 7.7460938 31.400391 L 8.0820312 31.525391 C 8.013055 31.698518 7.9400137 31.864613 7.8828125 32.052734 C 7.6967808 32.664549 7.5725029 33.372598 7.75 34.123047 C 7.9273942 34.873061 8.4915536 35.61879 9.34375 36.019531 C 10.167694 36.406782 11.036858 36.430566 11.732422 36.185547 C 12.239237 36.007016 12.646896 35.715706 12.980469 35.396484 L 11.25 42.769531 C 11.1 43.899531 11.779141 44.970781 12.869141 45.300781 C 14.599141 45.830781 18.069922 46.539844 21.669922 46.839844 L 21.669922 26.330078 C 19.676207 26.16229 17.336835 25.834521 15.458984 25.201172 C 13.736274 24.620551 12.39908 23.784309 12.080078 22.580078 z M 37.919922 22.580078 C 37.588349 23.831767 36.157692 24.687254 34.335938 25.269531 C 33.980327 25.381509 33.618142 25.489029 33.238281 25.582031 C 33.215101 25.58772 33.193175 25.593993 33.169922 25.599609 L 33.169922 25.601562 C 31.590638 25.982341 29.854524 26.208729 28.330078 26.330078 L 28.330078 46.839844 C 31.930078 46.539844 35.400859 45.830781 37.130859 45.300781 C 38.220859 44.970781 38.9 43.899531 38.75 42.769531 L 37.017578 35.394531 C 37.351506 35.714488 37.759777 36.006668 38.267578 36.185547 C 38.962576 36.430367 39.830952 36.405876 40.654297 36.019531 C 41.507321 35.618957 42.072503 34.873496 42.25 34.123047 C 42.427497 33.372598 42.30322 32.664549 42.117188 32.052734 C 42.059986 31.864613 41.986945 31.698518 41.917969 31.525391 L 42.253906 31.400391 C 42.827906 31.185391 43.117344 30.546656 42.902344 29.972656 L 42.044922 27.679688 C 41.829922 27.105688 41.189234 26.814297 40.615234 27.029297 L 40.333984 27.134766 C 39.727954 25.794321 38.888366 24.092037 37.919922 22.580078 z M 23.669922 26.460938 L 23.669922 46.970703 C 24.119922 46.990703 24.56 47 25 47 C 25.44 47 25.880078 46.990703 26.330078 46.970703 L 26.330078 26.460938 C 25.820078 26.480938 25.369531 26.49 25.019531 26.5 C 24.659531 26.49 24.199922 26.480937 23.669922 26.460938 z M 9.9609375 32.230469 L 11.873047 32.945312 L 12.158203 33.125 C 12.030464 33.371741 12.026324 33.473755 11.802734 33.736328 C 11.566965 34.013204 11.302061 34.215816 11.066406 34.298828 C 10.830751 34.381838 10.612869 34.40523 10.195312 34.208984 C 9.806837 34.026559 9.7505967 33.895848 9.6953125 33.662109 C 9.6400285 33.428371 9.6705789 33.043701 9.7949219 32.634766 C 9.8521692 32.446492 9.9039411 32.333155 9.9609375 32.230469 z M 40.039062 32.230469 C 40.096059 32.333155 40.147831 32.446492 40.205078 32.634766 C 40.329421 33.043701 40.359972 33.428371 40.304688 33.662109 C 40.249407 33.895848 40.193163 34.026559 39.804688 34.208984 C 39.387132 34.405234 39.169249 34.381844 38.933594 34.298828 C 38.697939 34.215818 38.433035 34.013204 38.197266 33.736328 C 37.973676 33.473755 37.969536 33.371741 37.841797 33.125 L 38.128906 32.945312 L 40.039062 32.230469 z"/></svg>