<svg xmlns="http://www.w3.org/2000/svg"  viewBox="0 0 50 50" width="50px" height="50px" baseProfile="basic"><path d="M11,37L1,34c0,0,3-3,6-4c-2-2-6-3-6-3s4-4,11-4c0,0-4-3-8-4c2-1,4-2,7-2c0,0-3-6-10-8c6-3,17-2,22,4c0,0,1-7-3-11 c8,1,14,7,13,14c4,0,6,4,6,4l10-3l-5,6l5,2l-6,6l4,4l-7,2H11z"/><path d="M40,38H11c-0.097,0-0.194-0.015-0.287-0.042l-10-3c-0.337-0.102-0.597-0.372-0.683-0.714 c-0.086-0.341,0.014-0.702,0.263-0.951c0.107-0.107,2.23-2.214,4.766-3.539c-1.867-1.162-4.272-1.776-4.302-1.784 c-0.349-0.088-0.625-0.356-0.72-0.703c-0.096-0.348,0.001-0.719,0.256-0.974c0.149-0.149,3.236-3.175,8.699-4.055 c-1.439-0.84-3.35-1.797-5.235-2.269c-0.406-0.102-0.706-0.445-0.751-0.861c-0.045-0.416,0.173-0.816,0.547-1.003 c1.675-0.837,3.395-1.697,5.704-1.996c-1.28-1.784-4.042-4.866-8.532-6.148C0.329,9.848,0.042,9.503,0.004,9.093 c-0.038-0.411,0.18-0.803,0.548-0.987c5.809-2.903,15.806-2.233,21.551,2.591c-0.044-2.232-0.523-5.701-2.811-7.989 c-0.302-0.302-0.379-0.763-0.191-1.146c0.188-0.384,0.6-0.608,1.022-0.553c4.72,0.59,8.894,2.848,11.449,6.194 c1.81,2.37,2.671,5.076,2.521,7.884c2.831,0.453,4.599,2.583,5.364,3.733l9.255-2.777c0.42-0.125,0.878,0.039,1.122,0.407 c0.243,0.368,0.216,0.853-0.066,1.191l-4.119,4.943l3.722,1.488c0.312,0.125,0.541,0.398,0.608,0.728 c0.068,0.329-0.035,0.671-0.272,0.908L44.414,31l3.293,3.293c0.25,0.25,0.35,0.615,0.261,0.958 c-0.089,0.343-0.353,0.613-0.693,0.711l-7,2C40.186,37.988,40.093,38,40,38z M11.147,36H39.86l5.231-1.494l-2.798-2.799 c-0.391-0.391-0.391-1.023,0-1.414l4.928-4.928l-3.592-1.437c-0.297-0.119-0.52-0.373-0.598-0.684 c-0.079-0.311-0.004-0.64,0.201-0.886l2.873-3.447l-6.817,2.045c-0.466,0.143-0.964-0.076-1.182-0.51 C38.089,20.415,36.316,17,33,17c-0.29,0-0.565-0.126-0.755-0.345c-0.19-0.219-0.275-0.51-0.234-0.797 c0.377-2.64-0.324-5.214-2.026-7.443c-1.778-2.329-4.479-4.057-7.623-4.928c2.367,4.202,1.666,9.396,1.628,9.654 c-0.056,0.391-0.337,0.712-0.717,0.82c-0.38,0.11-0.788-0.018-1.041-0.322C18.216,8.821,9.699,7.412,3.841,8.999 c5.515,2.587,7.939,7.325,8.054,7.553c0.155,0.31,0.138,0.678-0.044,0.973C11.668,17.82,11.347,18,11,18 c-1.708,0-3.064,0.352-4.311,0.85c3.163,1.305,5.775,3.248,5.911,3.351c0.344,0.258,0.485,0.708,0.349,1.116S12.431,24,12,24 c-4.175,0-7.234,1.53-8.888,2.625c1.42,0.526,3.336,1.408,4.595,2.668c0.245,0.245,0.346,0.6,0.266,0.937 c-0.08,0.338-0.328,0.609-0.657,0.719c-1.594,0.532-3.226,1.711-4.315,2.608L11.147,36z"/><path fill="#fff" d="M34.647,40.329l4.331-2.619c0.633-0.382,1.02-1.073,1.02-1.816v-4.213 c0.028-1.281-0.481-1.867-1.045-1.93L35,33c0,0,0.703-1.319-0.371-5.649c0,0-4.629,3.649-8.592,5.495 c2.148-4.33,1.074-8.66,1.074-8.66S21,28,19,32c-1-3,0.593-7.814,0.593-7.814S15,28.588,15,34c-1-1-1.463-1.561-2.481-4.18 c-0.713-0.286-1.554,0.222-1.518,1.861v4.213c0,0.744,0.388,1.434,1.02,1.816l3.573,2.161"/><path d="M34.648,41.329c-0.338,0-0.669-0.172-0.857-0.482c-0.286-0.473-0.134-1.088,0.338-1.373l4.332-2.619 c0.332-0.201,0.538-0.569,0.538-0.961v-4.213c0.006-0.276-0.019-0.482-0.053-0.63l-3.311,2.722 c-0.369,0.302-0.899,0.305-1.269,0.001c-0.369-0.302-0.473-0.822-0.249-1.243l0,0c-0.004,0,0.324-0.917-0.134-3.438 c-1.674,1.23-4.732,3.359-7.524,4.659c-0.385,0.182-0.842,0.096-1.138-0.208c-0.296-0.304-0.369-0.762-0.18-1.143 c1.229-2.478,1.314-4.966,1.204-6.487c-1.843,1.314-5.144,3.919-6.451,6.533c-0.181,0.362-0.567,0.585-0.965,0.55 c-0.403-0.028-0.75-0.297-0.878-0.681c-0.41-1.229-0.438-2.696-0.311-4.06C16.819,29.835,16,31.844,16,34 c0,0.404-0.244,0.77-0.617,0.924c-0.375,0.156-0.804,0.069-1.09-0.217c-0.961-0.961-1.483-1.598-2.275-3.461 c-0.013,0.114-0.021,0.252-0.017,0.413v4.234c0,0.392,0.206,0.76,0.538,0.961l3.573,2.16c0.472,0.285,0.624,0.9,0.338,1.373 c-0.286,0.473-0.9,0.623-1.374,0.338l-3.573-2.16c-0.927-0.561-1.503-1.585-1.503-2.672v-4.213 c-0.035-1.598,0.646-2.313,1.054-2.596c0.541-0.374,1.212-0.444,1.836-0.193c0.257,0.103,0.459,0.308,0.56,0.565 c0.338,0.869,0.606,1.49,0.851,1.969c1.042-4.505,4.43-7.8,4.6-7.962c0.332-0.317,0.837-0.369,1.225-0.124 c0.389,0.245,0.56,0.724,0.417,1.159c-0.011,0.033-0.782,2.404-0.869,4.715c2.649-3.196,6.698-5.745,6.908-5.877 c0.271-0.169,0.607-0.198,0.905-0.078c0.297,0.12,0.518,0.375,0.595,0.686c0.039,0.156,0.765,3.188-0.19,6.791 c3.137-1.828,6.082-4.142,6.119-4.17c0.267-0.211,0.622-0.271,0.943-0.161s0.564,0.376,0.646,0.705 c0.375,1.51,0.545,2.692,0.602,3.608l2.117-1.74c0.209-0.171,0.478-0.252,0.747-0.222c0.919,0.104,1.977,0.938,1.934,2.946v4.191 c0,1.087-0.576,2.111-1.503,2.672l-4.332,2.619C35.002,41.283,34.824,41.329,34.648,41.329z"/><path d="M26.037,50H24.45c-0.579,0-1.132-0.179-1.602-0.519l-6.315-4.547c-0.684-0.49-1.156-1.218-1.329-2.047l-0.826-5.055	c-0.089-0.545,0.281-1.06,0.826-1.148c0.55-0.087,1.059,0.282,1.148,0.826l0.818,5.012c0.062,0.294,0.254,0.589,0.531,0.788	l6.317,4.549C24.143,47.951,24.296,48,24.45,48h1.37c0.043-0.01,0.088-0.017,0.133-0.021c0.104-0.009,0.253-0.037,0.369-0.12	l6.315-4.548c0.278-0.2,0.469-0.495,0.54-0.832l0.84-4.657c0.098-0.543,0.617-0.905,1.162-0.807	c0.543,0.099,0.904,0.618,0.806,1.162l-0.845,4.684c-0.178,0.854-0.649,1.58-1.333,2.073l-6.316,4.548	c-0.322,0.231-0.705,0.388-1.12,0.458C26.266,49.979,26.154,50,26.037,50z"/><circle cx="20.5" cy="36.5" r="1.5"/><circle cx="29.5" cy="36.5" r="1.5"/><path d="M22,43c0.536,1.179,1.673,2,3,2c1.327,0,2.464-0.821,3-2H22z"/><path d="M27.999,37c-0.448,0-0.855-0.303-0.969-0.758c-0.134-0.535,0.192-1.078,0.728-1.212l4-1c0.537-0.134,1.079,0.19,1.213,0.728	c0.134,0.535-0.192,1.078-0.728,1.212l-4,1C28.161,36.991,28.08,37,27.999,37z"/><path d="M22.001,37c-0.081,0-0.162-0.01-0.244-0.03l-4-1c-0.536-0.134-0.861-0.677-0.728-1.212c0.134-0.537,0.679-0.861,1.213-0.728	l4,1c0.536,0.134,0.861,0.677,0.728,1.212C22.856,36.698,22.449,37,22.001,37z"/><path d="M26,42h-2c-0.552,0-1-0.447-1-1s0.448-1,1-1h2c0.552,0,1,0.447,1,1S26.552,42,26,42z"/></svg>