<svg xmlns="http://www.w3.org/2000/svg"  viewBox="0 0 50 50" width="50px" height="50px"><path d="M 22.054688 2.6035156 C 21.713416 2.606063 21.376895 2.6247686 21.046875 2.6582031 C 19.726796 2.7919413 18.49922 3.1654668 17.380859 3.7226562 C 15.144138 4.8370354 13.340032 6.6414661 11.892578 8.6445312 C 8.9976697 12.650662 7.4895676 17.454505 7.0195312 19.804688 C 6.0221161 24.791764 5.0426699 29.289557 7.0390625 36.275391 C 8.115086 40.041473 10.414069 41.852122 12.414062 42.566406 C 14.414058 43.28069 16.164063 42.986328 16.164062 42.986328 A 1.0001 1.0001 0 0 0 16.302734 42.955078 C 17.412456 44.487284 18.689064 45.830864 20.082031 46.900391 C 21.049598 47.643717 22.231543 48 23.412109 48 L 25 48 L 26.587891 48 C 27.768457 48 28.950402 47.643811 29.917969 46.900391 C 31.303035 45.836931 32.572393 44.501809 33.677734 42.980469 A 1.0001 1.0001 0 0 0 33.705078 42.986328 C 33.705078 42.986328 35.457036 43.28069 37.457031 42.566406 C 39.457026 41.852122 41.756008 40.041473 42.832031 36.275391 C 44.828424 29.289557 43.847023 24.791763 42.849609 19.804688 C 42.379572 17.454505 40.871471 12.650662 37.976562 8.6445312 C 36.529108 6.6414661 34.726955 4.8370354 32.490234 3.7226562 C 31.371874 3.1654668 30.142344 2.7919413 28.822266 2.6582031 C 27.600678 2.5344432 26.298575 2.6273712 24.935547 2.9609375 C 23.940568 2.7174862 22.976653 2.5966337 22.054688 2.6035156 z M 21.287109 12.185547 C 22.542134 12.168787 23.710352 12.827175 24.113281 13.486328 A 1.0001 1.0001 0 0 0 24.925781 14.007812 A 1.0001 1.0001 0 0 0 24.978516 14.011719 A 1.0001 1.0001 0 0 0 25.177734 13.996094 A 1.0001 1.0001 0 0 0 25.886719 13.486328 C 26.289648 12.827175 27.457866 12.168786 28.712891 12.185547 C 29.981465 12.202487 31.258833 12.753995 32.105469 14.447266 C 33.983387 18.203102 35.797001 22.721452 35.941406 29.058594 L 34.705078 30.294922 C 34.248078 30.751922 33.956953 31.348234 33.876953 31.990234 L 33.232422 37.146484 C 33.068422 38.455484 32.514578 39.692641 31.642578 40.681641 C 31.424578 40.929641 31.211 41.143797 31 41.341797 L 31 36.654297 C 31 35.736297 30.496453 34.892078 29.689453 34.455078 L 27 33 L 23 33 L 20.310547 34.457031 C 19.503547 34.894031 19 35.73925 19 36.65625 L 19 41.341797 C 18.789 41.143797 18.576422 40.930594 18.357422 40.683594 C 17.485422 39.694594 16.931578 38.454484 16.767578 37.146484 L 16.123047 31.990234 C 16.043047 31.348234 15.751922 30.751922 15.294922 30.294922 L 14.058594 29.058594 C 14.203002 22.721452 16.016613 18.203102 17.894531 14.447266 C 18.741167 12.753995 20.018535 12.202489 21.287109 12.185547 z M 17 23 A 1.0001 1.0001 0 1 0 17 25 L 18.087891 25 A 1.5 1.5 0 0 0 19.5 27 A 1.5 1.5 0 0 0 20.914062 25 L 21 25 A 1.0001 1.0001 0 1 0 21 23 L 17 23 z M 29 23 A 1.0001 1.0001 0 1 0 29 25 L 29.087891 25 A 1.5 1.5 0 0 0 30.5 27 A 1.5 1.5 0 0 0 31.914062 25 L 33 25 A 1.0001 1.0001 0 1 0 33 23 L 29 23 z M 22.431641 38 L 27.568359 38 C 28.358359 38 29 38.641641 29 39.431641 L 29 42.634766 C 28.346 42.877766 27.69 42.968094 27 42.996094 L 27 41.548828 C 27 40.693828 26.306172 40 25.451172 40 L 24.548828 40 C 23.693828 40 23 40.693828 23 41.548828 L 23 42.996094 C 22.31 42.968094 21.654 42.877766 21 42.634766 L 21 39.431641 C 21 38.641641 21.641641 38 22.431641 38 z"/></svg>