<?xml version="1.0"?><svg xmlns="http://www.w3.org/2000/svg"  viewBox="0 0 50 50" width="50px" height="50px">    <path d="M 25.060547 0.009765625 C 18.450547 4.6897656 19.829609 9.3700781 21.099609 11.580078 C 21.569609 12.420078 22.029297 12.910156 22.029297 12.910156 C 22.029297 12.910156 22.749141 14.119141 25.119141 14.119141 C 27.619141 14.119141 28.419922 12.539062 28.419922 12.539062 C 28.419922 12.539062 28.799453 12.140234 29.189453 11.490234 C 30.019453 10.100234 30.869375 7.5808594 28.109375 5.3808594 C 24.229375 2.2808594 24.990547 0.17976563 25.060547 0.009765625 z M 18.080078 6.9804688 C 17.130078 7.0004687 15.580625 7.1603125 13.890625 7.8203125 C 11.330625 8.8103125 7.9007812 11.149687 6.0507812 16.679688 C 5.7107812 17.719687 5.0702344 19.050469 3.9902344 19.480469 C 3.3002344 19.760469 2.4507031 19.639141 1.4707031 19.119141 C 1.1607031 18.949141 0.79046875 18.960625 0.48046875 19.140625 C 0.18046875 19.320625 0 19.65 0 20 C 0 20.69 0.12 37 11 37 L 12.509766 37 C 12.949766 38.38 13.820156 39.599688 14.410156 40.429688 L 14.660156 40.779297 C 15.010156 41.309297 15.339453 42.040312 15.689453 42.820312 C 16.849453 45.430312 18.440313 49 23.320312 49 L 26.679688 49 C 31.599688 49 33.189609 45.409062 34.349609 42.789062 C 34.679609 42.029063 34.999375 41.299766 35.359375 40.759766 C 35.439375 40.629766 35.549922 40.470781 35.669922 40.300781 C 36.229922 39.510781 37.050469 38.33 37.480469 37 L 39 37 C 49.88 37 50 20.69 50 20 C 50 19.65 49.819531 19.320625 49.519531 19.140625 C 49.209531 18.960625 48.839297 18.949141 48.529297 19.119141 C 47.549297 19.639141 46.709766 19.760469 46.009766 19.480469 C 44.929766 19.050469 44.289219 17.719687 43.949219 16.679688 C 42.099219 11.149687 38.669375 8.8103125 36.109375 7.8203125 C 34.269375 7.1003125 32.609453 6.9804688 31.689453 6.9804688 C 31.869453 7.5204688 31.960234 8.0094531 31.990234 8.4394531 C 32.060234 9.3794531 31.889141 10.259531 31.619141 11.019531 C 31.489141 11.399531 31.329922 11.740547 31.169922 12.060547 C 30.929922 12.510547 30.680937 12.899219 30.460938 13.199219 C 30.950938 13.079219 31.47 13 32 13 C 35.71 13 38 16.63 38 20 C 38 24.75 37.150469 26.459844 35.980469 28.839844 L 35.859375 29.070312 C 35.059375 30.710313 35.320781 32.239844 35.550781 33.589844 C 35.660781 34.209844 35.759766 34.789609 35.759766 35.349609 C 35.759766 36.689609 34.679063 38.230391 34.039062 39.150391 C 33.899062 39.350391 33.779688 39.519922 33.679688 39.669922 C 33.239688 40.349922 32.889531 41.140469 32.519531 41.980469 C 31.379531 44.560469 30.299688 47 26.679688 47 L 23.320312 47 C 19.740312 47 18.609531 44.459766 17.519531 42.009766 C 17.129531 41.139766 16.770547 40.330391 16.310547 39.650391 L 16.039062 39.269531 C 15.359063 38.319531 14.240234 36.749609 14.240234 35.349609 C 14.240234 34.799609 14.339219 34.219609 14.449219 33.599609 C 14.679219 32.249609 14.940625 30.710313 14.140625 29.070312 L 14.019531 28.839844 C 12.849531 26.459844 12 24.75 12 20 C 12 16.63 14.29 13 18 13 C 18.62 13 19.219297 13.099766 19.779297 13.259766 C 19.529297 12.879766 19.240703 12.390547 18.970703 11.810547 C 18.850703 11.570547 18.740625 11.309297 18.640625 11.029297 C 18.220625 9.8992969 17.930078 8.5204687 18.080078 6.9804688 z M 20 27 L 20 30 C 20 30.501869 19.975721 31.024283 19.957031 31.542969 C 18.68649 31.398692 17.517578 31.291016 17.517578 31.291016 L 17.046875 31.253906 L 16.982422 31.720703 C 16.871039 32.521633 17.212202 33.291867 17.787109 33.861328 C 18.263726 34.33343 18.910441 34.676622 19.646484 34.857422 C 19.645905 34.859454 19.645112 34.863222 19.644531 34.865234 C 19.369531 35.836234 19.008453 36.462625 18.689453 37.015625 C 18.319453 37.656625 18 38.213 18 39 C 18 40.33 19.017 41.125 20 41.125 C 20.875 41.125 21.195281 41.647891 21.238281 41.712891 C 22.167281 43.133891 22.921047 45 24.998047 45 C 27.075047 45 27.828813 43.133891 28.757812 41.712891 C 28.798813 41.649891 29.125 41.125 30 41.125 C 30.983 41.125 32 40.319609 32 38.974609 C 32 38.156609 31.676734 37.582969 31.302734 36.917969 C 31.002493 36.384096 30.661095 35.775348 30.355469 34.857422 C 31.090831 34.676539 31.736252 34.333085 32.212891 33.861328 C 32.787825 33.292282 33.128262 32.521878 33.017578 31.720703 L 32.953125 31.255859 L 32.484375 31.291016 C 32.484375 31.291016 31.307029 31.396013 30.029297 31.539062 C 30.013587 31.022432 29.992193 30.502533 29.994141 30.001953 C 30.000178 28.375907 30 27 30 27 L 29 27 C 29 27 29.000178 28.374088 28.994141 29.998047 C 28.992073 30.536107 29.013115 31.097115 29.03125 31.652344 C 28.960137 31.661811 28.896459 31.666018 28.826172 31.675781 C 27.139514 31.910067 26.355469 32.148436 26.355469 32.148438 L 25.947266 32.271484 L 26.005859 32.695312 C 26.117229 33.496142 26.655 34.144071 27.363281 34.535156 C 27.934622 34.850629 28.62668 35.006061 29.361328 34.990234 C 29.374891 35.039602 29.386254 35.113588 29.400391 35.15625 C 29.737391 36.17725 30.122641 36.85825 30.431641 37.40625 C 30.774641 38.01525 31.001953 38.419609 31.001953 38.974609 C 31.001953 39.694609 30.493953 40.123047 30.001953 40.123047 C 29.410953 40.123047 28.769703 40.220766 28.220703 40.759766 C 27.811703 41.161766 27.348781 41.498969 26.800781 41.667969 C 26.212781 41.850969 25.58 42 25 42 C 24.42 42 23.788172 41.850922 23.201172 41.669922 C 22.653172 41.500922 22.188297 41.163719 21.779297 40.761719 C 21.231297 40.222719 20.591 40.126953 20 40.126953 C 19.515 40.126953 19 39.731953 19 39.001953 C 19 38.480953 19.221641 38.097625 19.556641 37.515625 C 19.886641 36.941625 20.296469 36.227672 20.605469 35.138672 C 20.61612 35.100827 20.624355 35.033577 20.634766 34.990234 C 21.371401 35.006854 22.06579 34.851294 22.638672 34.535156 C 23.347005 34.144271 23.884704 33.496291 23.996094 32.695312 L 24.054688 32.271484 L 23.642578 32.148438 C 23.642578 32.148438 22.869104 31.919674 21.183594 31.685547 C 21.104772 31.674598 21.033005 31.668821 20.953125 31.658203 C 20.974295 31.102111 21 30.540368 21 30 L 21 27 L 20 27 z M 31.824219 32.367188 C 31.748869 32.634124 31.753429 32.909224 31.509766 33.150391 C 31.1082 33.547844 30.486775 33.863254 29.755859 33.964844 C 29.024542 34.066428 28.340422 33.931364 27.845703 33.658203 C 27.539648 33.489211 27.465046 33.218584 27.320312 32.976562 C 27.563089 32.915262 27.856723 32.844466 28.546875 32.736328 C 28.655589 33.170927 29.031866 33.5 29.5 33.5 C 30.052 33.5 30.5 33.052 30.5 32.5 C 30.5 32.495502 30.494404 32.492706 30.494141 32.488281 C 31.047578 32.432716 31.514155 32.392961 31.824219 32.367188 z M 18.175781 32.369141 C 18.486026 32.395966 18.951451 32.435712 19.503906 32.492188 C 19.503789 32.495154 19.5 32.497001 19.5 32.5 C 19.5 33.052 19.948 33.5 20.5 33.5 C 20.966 33.5 21.340375 33.173781 21.451172 32.742188 C 22.145644 32.849964 22.436202 32.918277 22.679688 32.978516 C 22.534914 33.220428 22.460474 33.491196 22.154297 33.660156 C 21.65938 33.933271 20.975036 34.067944 20.244141 33.966797 C 19.512873 33.86522 18.891827 33.548179 18.490234 33.150391 C 18.247079 32.909539 18.251196 32.635411 18.175781 32.369141 z M 21 37 L 21 37.5 C 21 38.33 21.67 39 22.5 39 C 22.75 39 22.979688 38.930078 23.179688 38.830078 C 23.499688 39.520078 24.19 40 25 40 C 25.81 40 26.500312 39.520078 26.820312 38.830078 C 27.020312 38.930078 27.25 39 27.5 39 C 28.33 39 29 38.33 29 37.5 L 29 37 L 21 37 z"/></svg>